<?xml version="1.0" encoding="utf-8"?>
<!-- Generator: Adobe Illustrator 18.0.0, SVG Export Plug-In . SVG Version: 6.00 Build 0)  -->
<!DOCTYPE svg PUBLIC "-//W3C//DTD SVG 1.1//EN" "http://www.w3.org/Graphics/SVG/1.1/DTD/svg11.dtd">
<svg version="1.1" xmlns="http://www.w3.org/2000/svg" xmlns:xlink="http://www.w3.org/1999/xlink" x="0px" y="0px"
	 viewBox="0 0 105 105" enable-background="new 0 0 105 105" xml:space="preserve">
<g id="Layer_1" display="none">
	<g display="inline">
		<g>
			<g>
				<defs>
					<rect id="SVGID_1_" x="0.2" y="0" width="12" height="5"/>
				</defs>
				<clipPath id="SVGID_2_">
					<use xlink:href="#SVGID_1_"  overflow="visible"/>
				</clipPath>
				<g clip-path="url(#SVGID_2_)">
					
						<image overflow="visible" enable-background="new    " width="105" height="105" xlink:href="CA9285C6A3F9BF7B.jpeg"  transform="matrix(0.998 0 0 0.998 0.2404 0)">
					</image>
				</g>
			</g>
		</g>
		<g>
			<g>
				<defs>
					<rect id="SVGID_3_" x="100" y="92.8" width="5" height="12"/>
				</defs>
				<clipPath id="SVGID_4_">
					<use xlink:href="#SVGID_3_"  overflow="visible"/>
				</clipPath>
				<g clip-path="url(#SVGID_4_)">
					
						<image overflow="visible" enable-background="new    " width="105" height="105" xlink:href="CA9285C6A3F9BF7F.jpeg"  transform="matrix(0.998 0 0 0.998 0.2404 0)">
					</image>
				</g>
			</g>
		</g>
		<g>
			<g>
				<defs>
					<polygon id="SVGID_5_" points="105,105 0,0 56.4,0 105,48.7 					"/>
				</defs>
				<clipPath id="SVGID_6_">
					<use xlink:href="#SVGID_5_"  overflow="visible"/>
				</clipPath>
			</g>
			<g>
				<defs>
					<polygon id="SVGID_7_" points="105,105 0,0 56.4,0 105,48.7 					"/>
				</defs>
				<defs>
					<rect id="SVGID_8_" x="0.2" y="-685.7" width="610.8" height="790.5"/>
				</defs>
				<clipPath id="SVGID_9_">
					<use xlink:href="#SVGID_7_"  overflow="visible"/>
				</clipPath>
				<clipPath id="SVGID_10_" clip-path="url(#SVGID_9_)">
					<use xlink:href="#SVGID_8_"  overflow="visible"/>
				</clipPath>
				<g clip-path="url(#SVGID_10_)">
					
						<image overflow="visible" enable-background="new    " width="105" height="105" xlink:href="CA9285C6A3F9BF7F.jpeg"  transform="matrix(0.998 0 0 0.998 0.2404 0)">
					</image>
				</g>
			</g>
		</g>
		<g>
			<g>
				<defs>
					<path id="SVGID_11_" d="M58.3,25c-0.3-1-0.8-1.9-1.6-2.6c-0.8-0.8-1.8-1.2-2.8-1.2c-1.1,0.1-2.1,0.6-3,1.5
						c-1,1-1.5,1.9-1.7,2.9c-0.1,0.9,0.2,1.8,1,2.5c0.4,0.4,0.8,0.8,1.3,1.1l1.9-1.9l-1.7-1.7l1.6-1.6l3.6,3.6l-4.7,4.7
						c-0.8-0.4-1.5-0.8-2-1.3c-0.6-0.4-1.2-0.9-1.7-1.5c-1.4-1.4-2-2.8-1.9-4.4c0.1-1.5,0.9-3,2.4-4.5c1.5-1.5,3-2.2,4.7-2.2
						s3.2,0.8,4.7,2.3c0.9,0.9,1.6,2,2.1,3.3L58.3,25L58.3,25z M66.9,38.7c-1.5,1.5-3,2.3-4.6,2.3c-1.6,0.1-3-0.6-4.4-2
						s-2-2.9-2-4.4c0.1-1.6,0.9-3.1,2.4-4.6c1.5-1.5,3.1-2.3,4.6-2.3c1.5,0,3,0.6,4.4,2c1.4,1.4,2.1,2.9,2,4.4
						C69.2,35.6,68.4,37.2,66.9,38.7L66.9,38.7z M65.7,31.3c-0.8-0.8-1.6-1.1-2.5-1c-0.9,0.1-1.9,0.7-2.9,1.7c-1,1-1.6,2-1.7,2.9
						c-0.1,0.9,0.2,1.7,0.9,2.5c1.5,1.5,3.3,1.3,5.4-0.7C66.9,34.6,67.2,32.8,65.7,31.3L65.7,31.3z M67.9,45.6l3.7,3.7l-1.7,1.5
						l-5.6-5.6l9.1-9.1l1.9,1.9L67.9,45.6L67.9,45.6z M83.7,55.5c-1.5,1.5-3.1,2.2-4.7,2.1c-1.6-0.1-3.3-0.9-4.9-2.5l-2.6-2.6
						l9.1-9.1l2.8,2.9c1.5,1.5,2.2,3,2.3,4.6C85.8,52.6,85.1,54.1,83.7,55.5L83.7,55.5z M82,48l-1-1l-6,5.9l0.8,0.8
						c1.8,1.9,3.8,1.8,5.8-0.2C83.6,51.6,83.7,49.8,82,48L82,48z"/>
				</defs>
				<clipPath id="SVGID_12_">
					<use xlink:href="#SVGID_11_"  overflow="visible"/>
				</clipPath>
				<g clip-path="url(#SVGID_12_)">
					
						<image overflow="visible" enable-background="new    " width="105" height="105" xlink:href="CA9285C6A3F9BF7B.jpg"  transform="matrix(0.998 0 0 0.998 0.105 0.105)">
					</image>
				</g>
			</g>
		</g>
	</g>
</g>
<g id="Layer_2">
	<polygon fill="#EAA402" points="0.2,0 56.4,0 105,48.7 105,104.8 	"/>
	<polygon fill="#BA8303" points="0,5.1 5,5.1 0,0.1 	"/>
	<polygon fill="#BA8303" points="100,104.8 100,99.8 105,104.7 	"/>
	<g>
		<path fill="#FFFFFF" d="M53.1,25.7l3.6,3.6L51.9,34c-0.8-0.4-1.5-0.8-2.1-1.2c-0.6-0.4-1.2-0.9-1.7-1.5c-1.4-1.4-2-2.8-1.9-4.3
			c0.1-1.5,0.9-3,2.4-4.6c1.5-1.5,3-2.2,4.7-2.2c1.7,0,3.2,0.8,4.7,2.3c0.9,0.9,1.6,2,2.1,3.3L58,26.6c-0.3-1-0.9-1.8-1.6-2.6
			c-0.8-0.8-1.8-1.2-2.8-1.2c-1.1,0.1-2.1,0.6-3,1.5c-1,1-1.5,1.9-1.7,2.9c-0.1,0.9,0.2,1.8,1,2.5c0.4,0.4,0.9,0.8,1.3,1.1l1.9-1.9
			l-1.7-1.7L53.1,25.7z"/>
		<path fill="#FFFFFF" d="M66.5,40.3c-1.5,1.5-3,2.3-4.6,2.3c-1.6,0.1-3-0.6-4.4-2c-1.4-1.4-2.1-2.9-2-4.4c0.1-1.6,0.8-3.1,2.4-4.6
			c1.5-1.5,3-2.3,4.6-2.3c1.5-0.1,3,0.6,4.4,2c1.4,1.4,2.1,2.9,2,4.4C68.8,37.2,68,38.7,66.5,40.3z M59.9,33.6c-1,1-1.6,2-1.7,2.9
			c-0.1,0.9,0.2,1.7,1,2.5c1.5,1.5,3.3,1.3,5.4-0.8c2-2,2.3-3.8,0.8-5.4c-0.8-0.8-1.6-1.1-2.5-1C61.9,32,60.9,32.6,59.9,33.6z"/>
		<path fill="#FFFFFF" d="M63.8,46.7l9.1-9.1l1.9,1.9L67.4,47l3.7,3.7l-1.6,1.6L63.8,46.7z"/>
		<path fill="#FFFFFF" d="M83.2,56.8c-1.5,1.5-3.1,2.2-4.7,2.2c-1.6-0.1-3.3-0.9-4.9-2.5L71,53.9l9.1-9.1l2.9,2.9
			c1.5,1.5,2.2,3,2.3,4.6S84.6,55.4,83.2,56.8z M81.2,54.8c2-2,2.1-3.8,0.3-5.5l-1-1l-5.9,5.9l0.8,0.8
			C77.2,56.9,79.2,56.8,81.2,54.8z"/>
	</g>
</g>
</svg>
